{
    "asset" : {
        "generator" : "Khronos glTF Blender I/O v3.3.36",
        "version" : "2.0"
    },
    "extensionsUsed" : [
        "KHR_materials_specular",
        "KHR_materials_ior"
    ],
    "scene" : 0,
    "scenes" : [
        {
            "name" : "Scene",
            "nodes" : [
                0,
                1,
                2
            ]
        }
    ],
    "nodes" : [
        {
            "mesh" : 0,
            "name" : "Superficie_di_Suddivisione_2",
            "rotation" : [
                0.7071068286895752,
                0,
                0,
                0.7071067094802856
            ],
            "scale" : [
                0.0042954664677381516,
                0.0042954664677381516,
                0.0042954664677381516
            ],
            "translation" : [
                -0.4214392900466919,
                0,
                0.11165564507246017
            ]
        },
        {
            "mesh" : 1,
            "name" : "riga",
            "rotation" : [
                0,
                0,
                -0.7071068286895752,
                0.7071068286895752
            ],
            "scale" : [
                0.009999999776482582,
                2.030466318130493,
                0.009999999776482582
            ],
            "translation" : [
                3.031341314315796,
                0.0004013851284980774,
                0.014603614807128906
            ]
        },
        {
            "mesh" : 2,
            "name" : "Text",
            "rotation" : [
                0.7240980863571167,
                0,
                0,
                0.6896970272064209
            ],
            "translation" : [
                2.3067567348480225,
                0.15440747141838074,
                0
            ]
        }
    ],
    "materials" : [
        {
            "doubleSided" : true,
            "extensions" : {
                "KHR_materials_specular" : {
                    "specularColorFactor" : [
                        0.150904572894563,
                        0.150904572894563,
                        0.150904572894563
                    ]
                },
                "KHR_materials_ior" : {
                    "ior" : 1.4500000476837158
                }
            },
            "name" : "Nuovo",
            "pbrMetallicRoughness" : {
                "baseColorTexture" : {
                    "index" : 0
                },
                "metallicFactor" : 0
            }
        },
        {
            "doubleSided" : true,
            "extensions" : {
                "KHR_materials_specular" : {
                    "specularColorFactor" : [
                        0,
                        0,
                        0
                    ]
                },
                "KHR_materials_ior" : {
                    "ior" : 1.4500000476837158
                }
            },
            "name" : "text",
            "pbrMetallicRoughness" : {
                "metallicFactor" : 0
            }
        }
    ],
    "meshes" : [
        {
            "name" : "Mesh",
            "primitives" : [
                {
                    "attributes" : {
                        "POSITION" : 0,
                        "NORMAL" : 1,
                        "TEXCOORD_0" : 2
                    },
                    "indices" : 3,
                    "material" : 0
                }
            ]
        },
        {
            "name" : "Cylinder",
            "primitives" : [
                {
                    "attributes" : {
                        "POSITION" : 4,
                        "NORMAL" : 5,
                        "TEXCOORD_0" : 6
                    },
                    "indices" : 7,
                    "material" : 1
                }
            ]
        },
        {
            "name" : "text",
            "primitives" : [
                {
                    "attributes" : {
                        "POSITION" : 8,
                        "NORMAL" : 9,
                        "TEXCOORD_0" : 10
                    },
                    "indices" : 11,
                    "material" : 1
                }
            ]
        }
    ],
    "textures" : [
        {
            "sampler" : 0,
            "source" : 0
        }
    ],
    "images" : [
        {
            "bufferView" : 4,
            "mimeType" : "image/png",
            "name" : "annularia.tif"
        }
    ],
    "accessors" : [
        {
            "bufferView" : 0,
            "componentType" : 5126,
            "count" : 2302,
            "max" : [
                352.1107177734375,
                1.7378432750701904,
                384.7118835449219
            ],
            "min" : [
                -342.86517333984375,
                -135.9706573486328,
                -405.765625
            ],
            "type" : "VEC3"
        },
        {
            "bufferView" : 1,
            "componentType" : 5126,
            "count" : 2302,
            "type" : "VEC3"
        },
        {
            "bufferView" : 2,
            "componentType" : 5126,
            "count" : 2302,
            "type" : "VEC2"
        },
        {
            "bufferView" : 3,
            "componentType" : 5123,
            "count" : 13248,
            "type" : "SCALAR"
        },
        {
            "bufferView" : 5,
            "componentType" : 5126,
            "count" : 192,
            "max" : [
                1.0000030994415283,
                0.6469956040382385,
                1
            ],
            "min" : [
                -1,
                -1,
                -1
            ],
            "type" : "VEC3"
        },
        {
            "bufferView" : 6,
            "componentType" : 5126,
            "count" : 192,
            "type" : "VEC3"
        },
        {
            "bufferView" : 7,
            "componentType" : 5126,
            "count" : 192,
            "type" : "VEC2"
        },
        {
            "bufferView" : 8,
            "componentType" : 5123,
            "count" : 372,
            "type" : "SCALAR"
        },
        {
            "bufferView" : 9,
            "componentType" : 5126,
            "count" : 5566,
            "max" : [
                2.0484001636505127,
                0,
                0.6018000245094299
            ],
            "min" : [
                0,
                0,
                -0.1372000128030777
            ],
            "type" : "VEC3"
        },
        {
            "bufferView" : 10,
            "componentType" : 5126,
            "count" : 5566,
            "type" : "VEC3"
        },
        {
            "bufferView" : 11,
            "componentType" : 5126,
            "count" : 5566,
            "type" : "VEC2"
        },
        {
            "bufferView" : 12,
            "componentType" : 5123,
            "count" : 12468,
            "type" : "SCALAR"
        }
    ],
    "bufferViews" : [
        {
            "buffer" : 0,
            "byteLength" : 27624,
            "byteOffset" : 0,
            "target" : 34962
        },
        {
            "buffer" : 0,
            "byteLength" : 27624,
            "byteOffset" : 27624,
            "target" : 34962
        },
        {
            "buffer" : 0,
            "byteLength" : 18416,
            "byteOffset" : 55248,
            "target" : 34962
        },
        {
            "buffer" : 0,
            "byteLength" : 26496,
            "byteOffset" : 73664,
            "target" : 34963
        },
        {
            "buffer" : 0,
            "byteLength" : 1307269,
            "byteOffset" : 100160
        },
        {
            "buffer" : 0,
            "byteLength" : 2304,
            "byteOffset" : 1407432,
            "target" : 34962
        },
        {
            "buffer" : 0,
            "byteLength" : 2304,
            "byteOffset" : 1409736,
            "target" : 34962
        },
        {
            "buffer" : 0,
            "byteLength" : 1536,
            "byteOffset" : 1412040,
            "target" : 34962
        },
        {
            "buffer" : 0,
            "byteLength" : 744,
            "byteOffset" : 1413576,
            "target" : 34963
        },
        {
            "buffer" : 0,
            "byteLength" : 66792,
            "byteOffset" : 1414320,
            "target" : 34962
        },
        {
            "buffer" : 0,
            "byteLength" : 66792,
            "byteOffset" : 1481112,
            "target" : 34962
        },
        {
            "buffer" : 0,
            "byteLength" : 44528,
            "byteOffset" : 1547904,
            "target" : 34962
        },
        {
            "buffer" : 0,
            "byteLength" : 24936,
            "byteOffset" : 1592432,
            "target" : 34963
        }
    ],
    "samplers" : [
        {
            "magFilter" : 9729,
            "minFilter" : 9987
        }
    ],
    "buffers" : [
        {
            "byteLength" : 1617368,
            "uri" : "data:application/octet-stream;base64,"
        }
    ]
}
