{
	"asset":{
		"version":"2.0",
		"generator":"Created using the official Cinema 4D glTF Exporter 1.000x284978"
	},
	"scenes":[{
		"nodes":[0,
		1,
		2]
	}],
	"accessors":[{
		"bufferView":0,
		"type":"SCALAR",
		"count":372,
		"componentType":5123,
		"byteOffset":0,
		"min":[0],
		"max":[191]
	},
	{
		"bufferView":1,
		"type":"VEC3",
		"count":192,
		"componentType":5126,
		"byteOffset":0,
		"min":[-0.5,
		-0.5,
		-0.5],
		"max":[0.5,
		0.5,
		0.5]
	},
	{
		"bufferView":1,
		"type":"VEC3",
		"count":192,
		"componentType":5126,
		"byteOffset":12,
		"min":[-0.9951847195625305,
		-0.9951847195625305,
		-1.0],
		"max":[0.9951847195625305,
		0.9951847195625305,
		1.0]
	},
	{
		"bufferView":1,
		"type":"VEC2",
		"count":192,
		"componentType":5126,
		"byteOffset":24,
		"min":[0.0,
		0.0],
		"max":[1.0,
		0.9900000095367432]
	},
	{
		"bufferView":2,
		"type":"SCALAR",
		"count":41232,
		"componentType":5123,
		"byteOffset":0,
		"min":[0],
		"max":[13952]
	},
	{
		"bufferView":3,
		"type":"VEC3",
		"count":13953,
		"componentType":5126,
		"byteOffset":0,
		"min":[1.1102230246251566e-16,
		-0.6230000257492065,
		0.0],
		"max":[1.618900179862976,
		0.06860000640153885,
		0.0]
	},
	{
		"bufferView":3,
		"type":"VEC3",
		"count":13953,
		"componentType":5126,
		"byteOffset":12,
		"min":[0.0,
		0.0,
		0.0],
		"max":[0.0,
		0.0,
		1.0]
	},
	{
		"bufferView":3,
		"type":"VEC2",
		"count":13953,
		"componentType":5126,
		"byteOffset":24,
		"min":[0.0,
		1.0],
		"max":[1.0,
		1.0]
	},
	{
		"bufferView":4,
		"type":"SCALAR",
		"count":18402,
		"componentType":5123,
		"byteOffset":0,
		"min":[0],
		"max":[4004]
	},
	{
		"bufferView":5,
		"type":"VEC3",
		"count":4005,
		"componentType":5126,
		"byteOffset":0,
		"min":[-0.21075284481048585,
		-0.1153549775481224,
		-0.38745757937431338],
		"max":[0.24020853638648988,
		0.1285560131072998,
		0.6395614743232727]
	},
	{
		"bufferView":5,
		"type":"VEC3",
		"count":4005,
		"componentType":5126,
		"byteOffset":12,
		"min":[-0.9999372363090515,
		-0.9995502829551697,
		-0.9993487000465393],
		"max":[0.9999210238456726,
		0.9999381303787231,
		0.9999673366546631]
	},
	{
		"bufferView":5,
		"type":"VEC2",
		"count":4005,
		"componentType":5126,
		"byteOffset":24,
		"min":[0.0,
		-0.9925906658172607],
		"max":[0.9856665134429932,
		0.0]
	}],
	"nodes":[{
		"name":"riga",
		"translation":[103.2601089477539,
		13.996140480041504,
		1.095271110534668],
		"mesh":0,
		"rotation":[0.5,
		-0.5,
		0.5,
		-0.4999999701976776],
		"scale":[1.0,
		1.0,
		203.046630859375]
	},
	{
		"name":"Text",
		"translation":[41.91334915161133,
		20.99388313293457,
		0.36509037017822268],
		"mesh":1,
		"rotation":[-0.02432520128786564,
		0.0,
		0.0,
		-0.999704122543335],
		"scale":[100.0,
		99.99999237060547,
		99.99999237060547]
	},
	{
		"name":"Destral_low.001",
		"translation":[-8.077935669463161e-28,
		-1.357006502724131e-38,
		0.0000030082831017352875],
		"mesh":2,
		"rotation":[-0.7071067690849304,
		4.6076283410911858e-7,
		4.6076283410911858e-7,
		0.7071067690849304],
		"scale":[100.0,
		100.0,
		100.0]
	}],
	"meshes":[{
		"name":"riga",
		"primitives":[{
			"attributes":{
				"POSITION":1,
				"NORMAL":2,
				"TEXCOORD_0":3
			},
			"indices":0,
			"material":0
		}]
	},
	{
		"name":"Text",
		"primitives":[{
			"attributes":{
				"POSITION":5,
				"NORMAL":6,
				"TEXCOORD_0":7
			},
			"indices":4,
			"material":0
		}]
	},
	{
		"name":"Destral_low.001",
		"primitives":[{
			"attributes":{
				"POSITION":9,
				"NORMAL":10,
				"TEXCOORD_0":11
			},
			"indices":8,
			"material":1
		}]
	}],
	"bufferViews":[{
		"buffer":0,
		"target":34963,
		"byteOffset":0,
		"byteLength":744
	},
	{
		"buffer":0,
		"target":34962,
		"byteOffset":744,
		"byteLength":6144,
		"byteStride":32
	},
	{
		"buffer":1,
		"target":34963,
		"byteOffset":0,
		"byteLength":82464
	},
	{
		"buffer":1,
		"target":34962,
		"byteOffset":82464,
		"byteLength":446496,
		"byteStride":32
	},
	{
		"buffer":2,
		"target":34963,
		"byteOffset":0,
		"byteLength":36804
	},
	{
		"buffer":2,
		"target":34962,
		"byteOffset":36804,
		"byteLength":128160,
		"byteStride":32
	}],
	"buffers":[{
		"uri":"data:application/octet-stream;base64,",
		"byteLength":6888
	},
	{
		"uri":"data:application/octet-stream;base64,",
		"byteLength":528960
	},
	{
		"uri":"data:application/octet-stream;base64,",
		"byteLength":164964
	}],
	"images":[{
		"uri":"data:image/jpeg;base64,"
	},
	{
		"uri":"data:image/jpeg;base64,"
	}],
	"samplers":[{
		"magFilter":9729,
		"minFilter":9729,
		"wrapS":10497,
		"wrapT":10497
	},
	{
		"magFilter":9729,
		"minFilter":9729,
		"wrapS":10497,
		"wrapT":10497
	}],
	"textures":[{
		"sampler":0,
		"source":0
	},
	{
		"sampler":1,
		"source":1
	}],
	"materials":[{
		"doubleSided":false,
		"alphaMode":"OPAQUE",
		"pbrMetallicRoughness":{
			"baseColorFactor":[1.0,
			1.0,
			1.0,
			1.0],
			"metallicFactor":1.0,
			"roughnessFactor":1.0
		},
		"emissiveFactor":[0.0,
		0.0,
		0.0],
		"name":"text"
	},
	{
		"doubleSided":false,
		"alphaMode":"OPAQUE",
		"pbrMetallicRoughness":{
			"baseColorTexture":{
				"index":0
			},
			"baseColorFactor":[0.800000011920929,
			0.800000011920929,
			0.800000011920929,
			1.0],
			"metallicFactor":0.0,
			"roughnessFactor":0.5356143810225276
		},
		"normalTexture":{
			"index":1,
			"scale":1.0
		},
		"emissiveFactor":[0.0,
		0.0,
		0.0],
		"name":"Destral.001"
	}]
}