{
    "asset" : {
        "generator" : "Khronos glTF Blender I/O v3.3.36",
        "version" : "2.0"
    },
    "extensionsUsed" : [
        "KHR_materials_specular",
        "KHR_materials_ior"
    ],
    "scene" : 0,
    "scenes" : [
        {
            "name" : "Scene",
            "nodes" : [
                0,
                1,
                2
            ]
        }
    ],
    "nodes" : [
        {
            "mesh" : 0,
            "name" : "riga",
            "rotation" : [
                0,
                0,
                -0.7071068286895752,
                0.7071068286895752
            ],
            "scale" : [
                0.009999999776482582,
                2.030466318130493,
                0.009999999776482582
            ],
            "translation" : [
                2.8834311962127686,
                0.0004013851284980774,
                0.014603614807128906
            ]
        },
        {
            "mesh" : 1,
            "name" : "Text",
            "rotation" : [
                0.7240980863571167,
                0,
                0,
                0.6896970272064209
            ],
            "translation" : [
                1.5675733089447021,
                0.14279693365097046,
                0
            ]
        },
        {
            "mesh" : 2,
            "name" : "Brontosauro",
            "rotation" : [
                0,
                -0.1386892944574356,
                0,
                0.990336000919342
            ],
            "scale" : [
                11.484183311462402,
                11.484182357788086,
                11.484183311462402
            ],
            "translation" : [
                0,
                -1.8875346183776855,
                0
            ]
        }
    ],
    "materials" : [
        {
            "doubleSided" : true,
            "extensions" : {
                "KHR_materials_specular" : {
                    "specularColorFactor" : [
                        0,
                        0,
                        0
                    ]
                },
                "KHR_materials_ior" : {
                    "ior" : 1.4500000476837158
                }
            },
            "name" : "text",
            "pbrMetallicRoughness" : {
                "metallicFactor" : 0
            }
        },
        {
            "doubleSided" : true,
            "extensions" : {
                "KHR_materials_specular" : {
                    "specularColorFactor" : [
                        0.215577971373942,
                        0.215577971373942,
                        0.215577971373942
                    ]
                },
                "KHR_materials_ior" : {
                    "ior" : 1.4500000476837158
                }
            },
            "name" : "Material",
            "pbrMetallicRoughness" : {
                "baseColorTexture" : {
                    "index" : 0
                },
                "metallicFactor" : 0
            }
        }
    ],
    "meshes" : [
        {
            "name" : "Cylinder",
            "primitives" : [
                {
                    "attributes" : {
                        "POSITION" : 0,
                        "NORMAL" : 1,
                        "TEXCOORD_0" : 2
                    },
                    "indices" : 3,
                    "material" : 0
                }
            ]
        },
        {
            "name" : "text",
            "primitives" : [
                {
                    "attributes" : {
                        "POSITION" : 4,
                        "NORMAL" : 5,
                        "TEXCOORD_0" : 6
                    },
                    "indices" : 7,
                    "material" : 0
                }
            ]
        },
        {
            "name" : "diplodoc",
            "primitives" : [
                {
                    "attributes" : {
                        "POSITION" : 8,
                        "NORMAL" : 9,
                        "TEXCOORD_0" : 10
                    },
                    "indices" : 11,
                    "material" : 1
                }
            ]
        }
    ],
    "textures" : [
        {
            "sampler" : 0,
            "source" : 0
        }
    ],
    "images" : [
        {
            "bufferView" : 12,
            "mimeType" : "image/png",
            "name" : "diplodac_texture"
        }
    ],
    "accessors" : [
        {
            "bufferView" : 0,
            "componentType" : 5126,
            "count" : 192,
            "max" : [
                1,
                1,
                1
            ],
            "min" : [
                -1,
                -1,
                -1
            ],
            "type" : "VEC3"
        },
        {
            "bufferView" : 1,
            "componentType" : 5126,
            "count" : 192,
            "type" : "VEC3"
        },
        {
            "bufferView" : 2,
            "componentType" : 5126,
            "count" : 192,
            "type" : "VEC2"
        },
        {
            "bufferView" : 3,
            "componentType" : 5123,
            "count" : 372,
            "type" : "SCALAR"
        },
        {
            "bufferView" : 4,
            "componentType" : 5126,
            "count" : 23351,
            "max" : [
                3.3145999908447266,
                0,
                1.4459999799728394
            ],
            "min" : [
                0,
                0,
                -0.1364000141620636
            ],
            "type" : "VEC3"
        },
        {
            "bufferView" : 5,
            "componentType" : 5126,
            "count" : 23351,
            "type" : "VEC3"
        },
        {
            "bufferView" : 6,
            "componentType" : 5126,
            "count" : 23351,
            "type" : "VEC2"
        },
        {
            "bufferView" : 7,
            "componentType" : 5123,
            "count" : 52584,
            "type" : "SCALAR"
        },
        {
            "bufferView" : 8,
            "componentType" : 5126,
            "count" : 4436,
            "max" : [
                0.08731745928525925,
                0.5594136118888855,
                0.6561557650566101
            ],
            "min" : [
                -0.08849280327558517,
                -0.0007445035735145211,
                -0.8096383810043335
            ],
            "type" : "VEC3"
        },
        {
            "bufferView" : 9,
            "componentType" : 5126,
            "count" : 4436,
            "type" : "VEC3"
        },
        {
            "bufferView" : 10,
            "componentType" : 5126,
            "count" : 4436,
            "type" : "VEC2"
        },
        {
            "bufferView" : 11,
            "componentType" : 5123,
            "count" : 25818,
            "type" : "SCALAR"
        }
    ],
    "bufferViews" : [
        {
            "buffer" : 0,
            "byteLength" : 2304,
            "byteOffset" : 0,
            "target" : 34962
        },
        {
            "buffer" : 0,
            "byteLength" : 2304,
            "byteOffset" : 2304,
            "target" : 34962
        },
        {
            "buffer" : 0,
            "byteLength" : 1536,
            "byteOffset" : 4608,
            "target" : 34962
        },
        {
            "buffer" : 0,
            "byteLength" : 744,
            "byteOffset" : 6144,
            "target" : 34963
        },
        {
            "buffer" : 0,
            "byteLength" : 280212,
            "byteOffset" : 6888,
            "target" : 34962
        },
        {
            "buffer" : 0,
            "byteLength" : 280212,
            "byteOffset" : 287100,
            "target" : 34962
        },
        {
            "buffer" : 0,
            "byteLength" : 186808,
            "byteOffset" : 567312,
            "target" : 34962
        },
        {
            "buffer" : 0,
            "byteLength" : 105168,
            "byteOffset" : 754120,
            "target" : 34963
        },
        {
            "buffer" : 0,
            "byteLength" : 53232,
            "byteOffset" : 859288,
            "target" : 34962
        },
        {
            "buffer" : 0,
            "byteLength" : 53232,
            "byteOffset" : 912520,
            "target" : 34962
        },
        {
            "buffer" : 0,
            "byteLength" : 35488,
            "byteOffset" : 965752,
            "target" : 34962
        },
        {
            "buffer" : 0,
            "byteLength" : 51636,
            "byteOffset" : 1001240,
            "target" : 34963
        },
        {
            "buffer" : 0,
            "byteLength" : 1019307,
            "byteOffset" : 1052876
        }
    ],
    "samplers" : [
        {
            "magFilter" : 9729,
            "minFilter" : 9987
        }
    ],
    "buffers" : [
        {
            "byteLength" : 2072184,
            "uri" : "data:application/octet-stream;base64,"
        }
    ]
}
