{
    "asset" : {
        "generator" : "Khronos glTF Blender I/O v3.3.36",
        "version" : "2.0"
    },
    "extensionsUsed" : [
        "KHR_materials_specular",
        "KHR_materials_ior"
    ],
    "scene" : 0,
    "scenes" : [
        {
            "name" : "Scene",
            "nodes" : [
                0,
                1,
                2
            ]
        }
    ],
    "nodes" : [
        {
            "mesh" : 0,
            "name" : "fossil15",
            "rotation" : [
                0.05702317878603935,
                -0.9726309180259705,
                -0.12132743000984192,
                0.18978166580200195
            ],
            "scale" : [
                0.9349628686904907,
                0.934962809085846,
                0.9349628686904907
            ],
            "translation" : [
                0,
                0.09324783831834793,
                0
            ]
        },
        {
            "mesh" : 1,
            "name" : "riga",
            "rotation" : [
                0,
                0,
                -0.7071068286895752,
                0.7071068286895752
            ],
            "scale" : [
                0.009999999776482582,
                2.030466318130493,
                0.009999999776482582
            ],
            "translation" : [
                2.0941405296325684,
                0.0004013851284980774,
                0.014603614807128906
            ]
        },
        {
            "mesh" : 2,
            "name" : "Text",
            "rotation" : [
                0.7240980863571167,
                0,
                0,
                0.6896970272064209
            ],
            "translation" : [
                1.3437790870666504,
                0.13347315788269043,
                0
            ]
        }
    ],
    "materials" : [
        {
            "doubleSided" : true,
            "extensions" : {
                "KHR_materials_specular" : {
                    "specularColorFactor" : [
                        0,
                        0,
                        0
                    ]
                },
                "KHR_materials_ior" : {
                    "ior" : 1.4500000476837158
                }
            },
            "name" : "fossil15",
            "normalTexture" : {
                "index" : 0
            },
            "pbrMetallicRoughness" : {
                "baseColorTexture" : {
                    "index" : 1
                },
                "metallicFactor" : 0
            }
        },
        {
            "doubleSided" : true,
            "extensions" : {
                "KHR_materials_specular" : {
                    "specularColorFactor" : [
                        0,
                        0,
                        0
                    ]
                },
                "KHR_materials_ior" : {
                    "ior" : 1.4500000476837158
                }
            },
            "name" : "text",
            "pbrMetallicRoughness" : {
                "metallicFactor" : 0
            }
        }
    ],
    "meshes" : [
        {
            "name" : "Mesh",
            "primitives" : [
                {
                    "attributes" : {
                        "POSITION" : 0,
                        "NORMAL" : 1,
                        "TEXCOORD_0" : 2
                    },
                    "indices" : 3,
                    "material" : 0
                }
            ]
        },
        {
            "name" : "Cylinder",
            "primitives" : [
                {
                    "attributes" : {
                        "POSITION" : 4,
                        "NORMAL" : 5,
                        "TEXCOORD_0" : 6
                    },
                    "indices" : 7,
                    "material" : 1
                }
            ]
        },
        {
            "name" : "text",
            "primitives" : [
                {
                    "attributes" : {
                        "POSITION" : 8,
                        "NORMAL" : 9,
                        "TEXCOORD_0" : 10
                    },
                    "indices" : 11,
                    "material" : 1
                }
            ]
        }
    ],
    "textures" : [
        {
            "sampler" : 0,
            "source" : 0
        },
        {
            "sampler" : 0,
            "source" : 1
        }
    ],
    "images" : [
        {
            "bufferView" : 4,
            "mimeType" : "image/jpeg",
            "name" : "fossil15_normals"
        },
        {
            "bufferView" : 5,
            "mimeType" : "image/jpeg",
            "name" : "fossil15_albedo"
        }
    ],
    "accessors" : [
        {
            "bufferView" : 0,
            "componentType" : 5126,
            "count" : 1093,
            "max" : [
                0.6239928603172302,
                0.9567708969116211,
                0.7077780961990356
            ],
            "min" : [
                -0.6259229779243469,
                -0.6863071918487549,
                -0.5792113542556763
            ],
            "type" : "VEC3"
        },
        {
            "bufferView" : 1,
            "componentType" : 5126,
            "count" : 1093,
            "type" : "VEC3"
        },
        {
            "bufferView" : 2,
            "componentType" : 5126,
            "count" : 1093,
            "type" : "VEC2"
        },
        {
            "bufferView" : 3,
            "componentType" : 5123,
            "count" : 4500,
            "type" : "SCALAR"
        },
        {
            "bufferView" : 6,
            "componentType" : 5126,
            "count" : 192,
            "max" : [
                1,
                1,
                1
            ],
            "min" : [
                -1,
                -1,
                -1
            ],
            "type" : "VEC3"
        },
        {
            "bufferView" : 7,
            "componentType" : 5126,
            "count" : 192,
            "type" : "VEC3"
        },
        {
            "bufferView" : 8,
            "componentType" : 5126,
            "count" : 192,
            "type" : "VEC2"
        },
        {
            "bufferView" : 9,
            "componentType" : 5123,
            "count" : 372,
            "type" : "SCALAR"
        },
        {
            "bufferView" : 10,
            "componentType" : 5126,
            "count" : 5631,
            "max" : [
                2.7940001487731934,
                0,
                0.6460000276565552
            ],
            "min" : [
                0.011400001123547554,
                0,
                -0.13828149437904358
            ],
            "type" : "VEC3"
        },
        {
            "bufferView" : 11,
            "componentType" : 5126,
            "count" : 5631,
            "type" : "VEC3"
        },
        {
            "bufferView" : 12,
            "componentType" : 5126,
            "count" : 5631,
            "type" : "VEC2"
        },
        {
            "bufferView" : 13,
            "componentType" : 5123,
            "count" : 12549,
            "type" : "SCALAR"
        }
    ],
    "bufferViews" : [
        {
            "buffer" : 0,
            "byteLength" : 13116,
            "byteOffset" : 0,
            "target" : 34962
        },
        {
            "buffer" : 0,
            "byteLength" : 13116,
            "byteOffset" : 13116,
            "target" : 34962
        },
        {
            "buffer" : 0,
            "byteLength" : 8744,
            "byteOffset" : 26232,
            "target" : 34962
        },
        {
            "buffer" : 0,
            "byteLength" : 9000,
            "byteOffset" : 34976,
            "target" : 34963
        },
        {
            "buffer" : 0,
            "byteLength" : 166861,
            "byteOffset" : 43976
        },
        {
            "buffer" : 0,
            "byteLength" : 142575,
            "byteOffset" : 210840
        },
        {
            "buffer" : 0,
            "byteLength" : 2304,
            "byteOffset" : 353416,
            "target" : 34962
        },
        {
            "buffer" : 0,
            "byteLength" : 2304,
            "byteOffset" : 355720,
            "target" : 34962
        },
        {
            "buffer" : 0,
            "byteLength" : 1536,
            "byteOffset" : 358024,
            "target" : 34962
        },
        {
            "buffer" : 0,
            "byteLength" : 744,
            "byteOffset" : 359560,
            "target" : 34963
        },
        {
            "buffer" : 0,
            "byteLength" : 67572,
            "byteOffset" : 360304,
            "target" : 34962
        },
        {
            "buffer" : 0,
            "byteLength" : 67572,
            "byteOffset" : 427876,
            "target" : 34962
        },
        {
            "buffer" : 0,
            "byteLength" : 45048,
            "byteOffset" : 495448,
            "target" : 34962
        },
        {
            "buffer" : 0,
            "byteLength" : 25098,
            "byteOffset" : 540496,
            "target" : 34963
        }
    ],
    "samplers" : [
        {
            "magFilter" : 9729,
            "minFilter" : 9987
        }
    ],
    "buffers" : [
        {
            "byteLength" : 565596,
            "uri" : "data:application/octet-stream;base64,"
        }
    ]
}
