{
    "asset" : {
        "generator" : "Khronos glTF Blender I/O v3.3.36",
        "version" : "2.0"
    },
    "extensionsUsed" : [
        "KHR_materials_specular",
        "KHR_materials_ior"
    ],
    "scene" : 0,
    "scenes" : [
        {
            "name" : "Scene",
            "nodes" : [
                0,
                1,
                2
            ]
        }
    ],
    "nodes" : [
        {
            "mesh" : 0,
            "name" : "fossil10",
            "rotation" : [
                0.40235069394111633,
                -0.6849047541618347,
                0.4990387558937073,
                0.34638091921806335
            ],
            "scale" : [
                1.1339994668960571,
                1.1339994668960571,
                1.1339993476867676
            ]
        },
        {
            "mesh" : 1,
            "name" : "riga",
            "rotation" : [
                0,
                0,
                -0.7071068286895752,
                0.7071068286895752
            ],
            "scale" : [
                0.009999999776482582,
                2.030466318130493,
                0.009999999776482582
            ],
            "translation" : [
                2.274247646331787,
                0.0004013851284980774,
                0.014603614807128906
            ]
        },
        {
            "mesh" : 2,
            "name" : "Text",
            "rotation" : [
                0.7240980863571167,
                0,
                0,
                0.6896970272064209
            ],
            "translation" : [
                1.5645523071289062,
                0.13123050332069397,
                0
            ]
        }
    ],
    "materials" : [
        {
            "doubleSided" : true,
            "extensions" : {
                "KHR_materials_specular" : {
                    "specularColorFactor" : [
                        0,
                        0,
                        0
                    ]
                },
                "KHR_materials_ior" : {
                    "ior" : 1.4500000476837158
                }
            },
            "name" : "fossil10",
            "normalTexture" : {
                "index" : 0
            },
            "pbrMetallicRoughness" : {
                "baseColorTexture" : {
                    "index" : 1
                },
                "metallicFactor" : 0
            }
        },
        {
            "doubleSided" : true,
            "extensions" : {
                "KHR_materials_specular" : {
                    "specularColorFactor" : [
                        0,
                        0,
                        0
                    ]
                },
                "KHR_materials_ior" : {
                    "ior" : 1.4500000476837158
                }
            },
            "name" : "text",
            "pbrMetallicRoughness" : {
                "metallicFactor" : 0
            }
        }
    ],
    "meshes" : [
        {
            "name" : "Mesh",
            "primitives" : [
                {
                    "attributes" : {
                        "POSITION" : 0,
                        "NORMAL" : 1,
                        "TEXCOORD_0" : 2
                    },
                    "indices" : 3,
                    "material" : 0
                }
            ]
        },
        {
            "name" : "Cylinder",
            "primitives" : [
                {
                    "attributes" : {
                        "POSITION" : 4,
                        "NORMAL" : 5,
                        "TEXCOORD_0" : 6
                    },
                    "indices" : 7,
                    "material" : 1
                }
            ]
        },
        {
            "name" : "text",
            "primitives" : [
                {
                    "attributes" : {
                        "POSITION" : 8,
                        "NORMAL" : 9,
                        "TEXCOORD_0" : 10
                    },
                    "indices" : 11,
                    "material" : 1
                }
            ]
        }
    ],
    "textures" : [
        {
            "sampler" : 0,
            "source" : 0
        },
        {
            "sampler" : 0,
            "source" : 1
        }
    ],
    "images" : [
        {
            "bufferView" : 4,
            "mimeType" : "image/jpeg",
            "name" : "fossil10_normals"
        },
        {
            "bufferView" : 5,
            "mimeType" : "image/jpeg",
            "name" : "fossil10_albedo"
        }
    ],
    "accessors" : [
        {
            "bufferView" : 0,
            "componentType" : 5126,
            "count" : 1170,
            "max" : [
                0.7041774392127991,
                0.7259563207626343,
                0.4420606195926666
            ],
            "min" : [
                -0.7478219270706177,
                -0.6570155620574951,
                -0.5115185976028442
            ],
            "type" : "VEC3"
        },
        {
            "bufferView" : 1,
            "componentType" : 5126,
            "count" : 1170,
            "type" : "VEC3"
        },
        {
            "bufferView" : 2,
            "componentType" : 5126,
            "count" : 1170,
            "type" : "VEC2"
        },
        {
            "bufferView" : 3,
            "componentType" : 5123,
            "count" : 4500,
            "type" : "SCALAR"
        },
        {
            "bufferView" : 6,
            "componentType" : 5126,
            "count" : 192,
            "max" : [
                1,
                1,
                1
            ],
            "min" : [
                -1,
                -1,
                -1
            ],
            "type" : "VEC3"
        },
        {
            "bufferView" : 7,
            "componentType" : 5126,
            "count" : 192,
            "type" : "VEC3"
        },
        {
            "bufferView" : 8,
            "componentType" : 5126,
            "count" : 192,
            "type" : "VEC2"
        },
        {
            "bufferView" : 9,
            "componentType" : 5123,
            "count" : 372,
            "type" : "SCALAR"
        },
        {
            "bufferView" : 10,
            "componentType" : 5126,
            "count" : 5469,
            "max" : [
                2.704399824142456,
                0,
                0.44600000977516174
            ],
            "min" : [
                0.009600000455975533,
                0,
                -0.13828149437904358
            ],
            "type" : "VEC3"
        },
        {
            "bufferView" : 11,
            "componentType" : 5126,
            "count" : 5469,
            "type" : "VEC3"
        },
        {
            "bufferView" : 12,
            "componentType" : 5126,
            "count" : 5469,
            "type" : "VEC2"
        },
        {
            "bufferView" : 13,
            "componentType" : 5123,
            "count" : 12108,
            "type" : "SCALAR"
        }
    ],
    "bufferViews" : [
        {
            "buffer" : 0,
            "byteLength" : 14040,
            "byteOffset" : 0,
            "target" : 34962
        },
        {
            "buffer" : 0,
            "byteLength" : 14040,
            "byteOffset" : 14040,
            "target" : 34962
        },
        {
            "buffer" : 0,
            "byteLength" : 9360,
            "byteOffset" : 28080,
            "target" : 34962
        },
        {
            "buffer" : 0,
            "byteLength" : 9000,
            "byteOffset" : 37440,
            "target" : 34963
        },
        {
            "buffer" : 0,
            "byteLength" : 210587,
            "byteOffset" : 46440
        },
        {
            "buffer" : 0,
            "byteLength" : 386439,
            "byteOffset" : 257028
        },
        {
            "buffer" : 0,
            "byteLength" : 2304,
            "byteOffset" : 643468,
            "target" : 34962
        },
        {
            "buffer" : 0,
            "byteLength" : 2304,
            "byteOffset" : 645772,
            "target" : 34962
        },
        {
            "buffer" : 0,
            "byteLength" : 1536,
            "byteOffset" : 648076,
            "target" : 34962
        },
        {
            "buffer" : 0,
            "byteLength" : 744,
            "byteOffset" : 649612,
            "target" : 34963
        },
        {
            "buffer" : 0,
            "byteLength" : 65628,
            "byteOffset" : 650356,
            "target" : 34962
        },
        {
            "buffer" : 0,
            "byteLength" : 65628,
            "byteOffset" : 715984,
            "target" : 34962
        },
        {
            "buffer" : 0,
            "byteLength" : 43752,
            "byteOffset" : 781612,
            "target" : 34962
        },
        {
            "buffer" : 0,
            "byteLength" : 24216,
            "byteOffset" : 825364,
            "target" : 34963
        }
    ],
    "samplers" : [
        {
            "magFilter" : 9729,
            "minFilter" : 9987
        }
    ],
    "buffers" : [
        {
            "byteLength" : 849580,
            "uri" : "data:application/octet-stream;base64,"
        }
    ]
}
