{
	"asset":{
		"generator":"Khronos glTF Blender I/O v3.5.30",
		"version":"2.0"
	},
	"extensionsUsed":[
		"KHR_materials_specular",
		"KHR_materials_ior"
	],
	"scene":0,
	"scenes":[
		{
			"name":"Scene",
			"nodes":[
				0
			]
		}
	],
	"nodes":[
		{
			"mesh":0,
			"name":"pietra1"
		}
	],
	"materials":[
		{
			"doubleSided":true,
			"extensions":{
				"KHR_materials_specular":{
					"specularColorFactor":[
						0,
						0,
						0
					]
				},
				"KHR_materials_ior":{
					"ior":1.4500000476837158
				}
			},
			"name":"Material",
			"pbrMetallicRoughness":{
				"baseColorTexture":{
					"index":0
				},
				"metallicFactor":0,
				"roughnessFactor":0.5
			}
		}
	],
	"meshes":[
		{
			"name":"Plane.001",
			"primitives":[
				{
					"attributes":{
						"POSITION":0,
						"TEXCOORD_0":1,
						"NORMAL":2
					},
					"indices":3,
					"material":0
				}
			]
		}
	],
	"textures":[
		{
			"sampler":0,
			"source":0
		}
	],
	"images":[
		{
			"bufferView":4,
			"mimeType":"image/png",
			"name":"382089534_1475328303265871_58019 (1)"
		}
	],
	"accessors":[
		{
			"bufferView":0,
			"componentType":5126,
			"count":631,
			"max":[
				0.09135934710502625,
				0.019947946071624756,
				0.03942229598760605
			],
			"min":[
				-0.09284365177154541,
				-0.015035152435302734,
				-0.03226296231150627
			],
			"type":"VEC3"
		},
		{
			"bufferView":1,
			"componentType":5126,
			"count":631,
			"type":"VEC2"
		},
		{
			"bufferView":2,
			"componentType":5126,
			"count":631,
			"type":"VEC3"
		},
		{
			"bufferView":3,
			"componentType":5123,
			"count":3726,
			"type":"SCALAR"
		}
	],
	"bufferViews":[
		{
			"buffer":0,
			"byteLength":7572,
			"byteOffset":0,
			"target":34962
		},
		{
			"buffer":0,
			"byteLength":5048,
			"byteOffset":7572,
			"target":34962
		},
		{
			"buffer":0,
			"byteLength":7572,
			"byteOffset":12620,
			"target":34962
		},
		{
			"buffer":0,
			"byteLength":7452,
			"byteOffset":20192,
			"target":34963
		},
		{
			"buffer":0,
			"byteLength":1665844,
			"byteOffset":27644
		}
	],
	"samplers":[
		{
			"magFilter":9729,
			"minFilter":9987
		}
	],
	"buffers":[
		{
			"byteLength":1693488,
			"uri":"data:application/octet-stream;base64,"
		}
	]
}
