{
	"asset":{
		"generator":"Khronos glTF Blender I/O v3.5.30",
		"version":"2.0"
	},
	"extensionsUsed":[
		"KHR_materials_specular",
		"KHR_materials_ior"
	],
	"scene":0,
	"scenes":[
		{
			"name":"Scene",
			"nodes":[
				0
			]
		}
	],
	"nodes":[
		{
			"mesh":0,
			"name":"OSSO"
		}
	],
	"materials":[
		{
			"doubleSided":true,
			"extensions":{
				"KHR_materials_specular":{
					"specularColorFactor":[
						0,
						0,
						0
					]
				},
				"KHR_materials_ior":{
					"ior":1.4500000476837158
				}
			},
			"name":"osso",
			"pbrMetallicRoughness":{
				"baseColorTexture":{
					"index":0
				},
				"metallicFactor":0
			}
		}
	],
	"meshes":[
		{
			"name":"Plane.002",
			"primitives":[
				{
					"attributes":{
						"POSITION":0,
						"TEXCOORD_0":1,
						"NORMAL":2
					},
					"indices":3,
					"material":0
				}
			]
		}
	],
	"textures":[
		{
			"sampler":0,
			"source":0
		}
	],
	"images":[
		{
			"bufferView":4,
			"mimeType":"image/png",
			"name":"382247714_283270521316728_7515930951270028610_n"
		}
	],
	"accessors":[
		{
			"bufferView":0,
			"componentType":5126,
			"count":12969,
			"max":[
				0.1079593375325203,
				0.009944580495357513,
				0.01050326693803072
			],
			"min":[
				-0.13181133568286896,
				-0.004449588246643543,
				-0.011267674155533314
			],
			"type":"VEC3"
		},
		{
			"bufferView":1,
			"componentType":5126,
			"count":12969,
			"type":"VEC2"
		},
		{
			"bufferView":2,
			"componentType":5126,
			"count":12969,
			"type":"VEC3"
		},
		{
			"bufferView":3,
			"componentType":5123,
			"count":69330,
			"type":"SCALAR"
		}
	],
	"bufferViews":[
		{
			"buffer":0,
			"byteLength":155628,
			"byteOffset":0,
			"target":34962
		},
		{
			"buffer":0,
			"byteLength":103752,
			"byteOffset":155628,
			"target":34962
		},
		{
			"buffer":0,
			"byteLength":155628,
			"byteOffset":259380,
			"target":34962
		},
		{
			"buffer":0,
			"byteLength":138660,
			"byteOffset":415008,
			"target":34963
		},
		{
			"buffer":0,
			"byteLength":543242,
			"byteOffset":553668
		}
	],
	"samplers":[
		{
			"magFilter":9729,
			"minFilter":9987
		}
	],
	"buffers":[
		{
			"byteLength":1096912,
			"uri":"data:application/octet-stream;base64,"
		}
	]
}
