{
    "asset": {
        "generator": "Khronos glTF Blender I/O v3.3.36",
        "version": "2.0"
    },
    "extensionsUsed": [
        "KHR_materials_specular",
        "KHR_materials_ior"
    ],
    "scene": 0,
    "scenes": [
        {
            "name": "Scene",
            "nodes": [
                0,
                1,
                2
            ]
        }
    ],
    "nodes": [
        {
            "mesh": 0,
            "name": "Sphere",
            "rotation": [
                0,
                -0.5482103228569031,
                0,
                0.8363404870033264
            ],
            "scale": [
                2.1007871627807617,
                2.100787401199341,
                2.1007871627807617
            ]
        },
        {
            "mesh": 1,
            "name": "riga",
            "rotation": [
                0,
                0,
                -0.7071068286895752,
                0.7071068286895752
            ],
            "scale": [
                0.009999999776482582,
                2.030466318130493,
                0.009999999776482582
            ],
            "translation": [
                3.367737293243408,
                0.0004013851284980774,
                0.014603614807128906
            ]
        },
        {
            "mesh": 2,
            "name": "Text",
            "rotation": [
                0.7240980863571167,
                0,
                0,
                0.6896970272064209
            ],
            "translation": [
                2.6833367347717285,
                0.14807012677192688,
                0
            ]
        }
    ],
    "materials": [
        {
            "doubleSided": true,
            "extensions": {
                "KHR_materials_specular": {
                    "specularColorFactor": [
                        0,
                        0,
                        0
                    ]
                },
                "KHR_materials_ior": {
                    "ior": 1.4500000476837158
                }
            },
            "name": "Material.001",
            "pbrMetallicRoughness": {
                "baseColorTexture": {
                    "index": 0
                },
                "metallicFactor": 0,
                "roughnessFactor": 0.5
            }
        },
        {
            "doubleSided": true,
            "extensions": {
                "KHR_materials_specular": {
                    "specularColorFactor": [
                        0,
                        0,
                        0
                    ]
                },
                "KHR_materials_ior": {
                    "ior": 1.4500000476837158
                }
            },
            "name": "text",
            "pbrMetallicRoughness": {
                "metallicFactor": 0
            }
        }
    ],
    "meshes": [
        {
            "name": "Sphere",
            "primitives": [
                {
                    "attributes": {
                        "POSITION": 0,
                        "NORMAL": 1,
                        "TEXCOORD_0": 2
                    },
                    "indices": 3,
                    "material": 0
                }
            ]
        },
        {
            "name": "Cylinder",
            "primitives": [
                {
                    "attributes": {
                        "POSITION": 4,
                        "NORMAL": 5,
                        "TEXCOORD_0": 6
                    },
                    "indices": 7,
                    "material": 1
                }
            ]
        },
        {
            "name": "text",
            "primitives": [
                {
                    "attributes": {
                        "POSITION": 8,
                        "NORMAL": 9,
                        "TEXCOORD_0": 10
                    },
                    "indices": 11,
                    "material": 1
                }
            ]
        }
    ],
    "textures": [
        {
            "sampler": 0,
            "source": 0
        }
    ],
    "images": [
        {
            "bufferView": 4,
            "mimeType": "image/png",
            "name": "Pangaea_hh"
        }
    ],
    "accessors": [
        {
            "bufferView": 0,
            "componentType": 5126,
            "count": 559,
            "max": [
                0.9903923869132996,
                0.9903926849365234,
                0.9903920888900757
            ],
            "min": [
                -0.9903918504714966,
                -0.9903926849365234,
                -0.9903924465179443
            ],
            "type": "VEC3"
        },
        {
            "bufferView": 1,
            "componentType": 5126,
            "count": 559,
            "type": "VEC3"
        },
        {
            "bufferView": 2,
            "componentType": 5126,
            "count": 559,
            "type": "VEC2"
        },
        {
            "bufferView": 3,
            "componentType": 5123,
            "count": 2880,
            "type": "SCALAR"
        },
        {
            "bufferView": 5,
            "componentType": 5126,
            "count": 192,
            "max": [
                1,
                1.1131747961044312,
                1
            ],
            "min": [
                -1.0000009536743164,
                -1,
                -1
            ],
            "type": "VEC3"
        },
        {
            "bufferView": 6,
            "componentType": 5126,
            "count": 192,
            "type": "VEC3"
        },
        {
            "bufferView": 7,
            "componentType": 5126,
            "count": 192,
            "type": "VEC2"
        },
        {
            "bufferView": 8,
            "componentType": 5123,
            "count": 372,
            "type": "SCALAR"
        },
        {
            "bufferView": 9,
            "componentType": 5126,
            "count": 12716,
            "max": [
                2.9660003185272217,
                0,
                1.0460000038146973
            ],
            "min": [
                0.008200000040233135,
                0,
                -0.1364000141620636
            ],
            "type": "VEC3"
        },
        {
            "bufferView": 10,
            "componentType": 5126,
            "count": 12716,
            "type": "VEC3"
        },
        {
            "bufferView": 11,
            "componentType": 5126,
            "count": 12716,
            "type": "VEC2"
        },
        {
            "bufferView": 12,
            "componentType": 5123,
            "count": 28449,
            "type": "SCALAR"
        }
    ],
    "bufferViews": [
        {
            "buffer": 0,
            "byteLength": 6708,
            "byteOffset": 0,
            "target": 34962
        },
        {
            "buffer": 0,
            "byteLength": 6708,
            "byteOffset": 6708,
            "target": 34962
        },
        {
            "buffer": 0,
            "byteLength": 4472,
            "byteOffset": 13416,
            "target": 34962
        },
        {
            "buffer": 0,
            "byteLength": 5760,
            "byteOffset": 17888,
            "target": 34963
        },
        {
            "buffer": 0,
            "byteLength": 909783,
            "byteOffset": 23648
        },
        {
            "buffer": 0,
            "byteLength": 2304,
            "byteOffset": 933432,
            "target": 34962
        },
        {
            "buffer": 0,
            "byteLength": 2304,
            "byteOffset": 935736,
            "target": 34962
        },
        {
            "buffer": 0,
            "byteLength": 1536,
            "byteOffset": 938040,
            "target": 34962
        },
        {
            "buffer": 0,
            "byteLength": 744,
            "byteOffset": 939576,
            "target": 34963
        },
        {
            "buffer": 0,
            "byteLength": 152592,
            "byteOffset": 940320,
            "target": 34962
        },
        {
            "buffer": 0,
            "byteLength": 152592,
            "byteOffset": 1092912,
            "target": 34962
        },
        {
            "buffer": 0,
            "byteLength": 101728,
            "byteOffset": 1245504,
            "target": 34962
        },
        {
            "buffer": 0,
            "byteLength": 56898,
            "byteOffset": 1347232,
            "target": 34963
        }
    ],
    "samplers": [
        {
            "magFilter": 9729,
            "minFilter": 9987
        }
    ],
    "buffers": [
        {
            "byteLength": 1404132,
            "uri": "data:application/octet-stream;base64,"
        }
    ]
}