{
	"asset":{
		"version":"2.0",
		"generator":"Created using the official Cinema 4D glTF Exporter 1.000x284978"
	},
	"scenes":[{
		"nodes":[0,
		1,
		2]
	}],
	"accessors":[{
		"bufferView":0,
		"type":"SCALAR",
		"count":2880,
		"componentType":5123,
		"byteOffset":0,
		"min":[0],
		"max":[558]
	},
	{
		"bufferView":1,
		"type":"VEC3",
		"count":559,
		"componentType":5126,
		"byteOffset":0,
		"min":[-0.9903918504714966,
		-0.9903920888900757,
		-0.9903926849365234],
		"max":[0.9903923869132996,
		0.9903924465179443,
		0.9903926849365234]
	},
	{
		"bufferView":1,
		"type":"VEC3",
		"count":559,
		"componentType":5126,
		"byteOffset":12,
		"min":[-1.0,
		-1.0,
		-1.0],
		"max":[1.0,
		0.9999999403953552,
		1.0]
	},
	{
		"bufferView":1,
		"type":"VEC2",
		"count":559,
		"componentType":5126,
		"byteOffset":24,
		"min":[0.0,
		-1.0],
		"max":[1.0,
		0.0]
	},
	{
		"bufferView":2,
		"type":"SCALAR",
		"count":372,
		"componentType":5123,
		"byteOffset":0,
		"min":[0],
		"max":[191]
	},
	{
		"bufferView":3,
		"type":"VEC3",
		"count":192,
		"componentType":5126,
		"byteOffset":0,
		"min":[-1.0000009536743165,
		-1.0,
		-1.0],
		"max":[1.0,
		1.0,
		1.1131747961044312]
	},
	{
		"bufferView":3,
		"type":"VEC3",
		"count":192,
		"componentType":5126,
		"byteOffset":12,
		"min":[-0.9951847791671753,
		-0.9951847195625305,
		-1.0],
		"max":[0.9951847195625305,
		0.9951847195625305,
		1.0]
	},
	{
		"bufferView":3,
		"type":"VEC2",
		"count":192,
		"componentType":5126,
		"byteOffset":24,
		"min":[0.0,
		0.0],
		"max":[1.0,
		0.9900000095367432]
	},
	{
		"bufferView":4,
		"type":"SCALAR",
		"count":28449,
		"componentType":5123,
		"byteOffset":0,
		"min":[0],
		"max":[9639]
	},
	{
		"bufferView":5,
		"type":"VEC3",
		"count":9640,
		"componentType":5126,
		"byteOffset":0,
		"min":[0.008200000040233136,
		-1.0460000038146973,
		0.0],
		"max":[2.9660003185272219,
		0.1364000141620636,
		0.0]
	},
	{
		"bufferView":5,
		"type":"VEC3",
		"count":9640,
		"componentType":5126,
		"byteOffset":12,
		"min":[0.0,
		0.0,
		0.0],
		"max":[0.0,
		0.0,
		1.0]
	},
	{
		"bufferView":5,
		"type":"VEC2",
		"count":9640,
		"componentType":5126,
		"byteOffset":24,
		"min":[0.0,
		1.0],
		"max":[1.0,
		1.0]
	}],
	"nodes":[{
		"name":"Sphere",
		"translation":[0.0,
		0.0,
		0.0],
		"mesh":0,
		"rotation":[0.5913820266723633,
		0.3876432776451111,
		0.3876432776451111,
		-0.5913820266723633],
		"scale":[210.0787353515625,
		210.0787353515625,
		210.0787353515625]
	},
	{
		"name":"riga",
		"translation":[336.77374267578127,
		0.04013851284980774,
		1.4603614807128907],
		"mesh":1,
		"rotation":[0.5,
		-0.5,
		0.5,
		-0.4999999701976776],
		"scale":[1.0,
		1.0,
		203.046630859375]
	},
	{
		"name":"Text",
		"translation":[268.33367919921877,
		14.807012557983399,
		0.0],
		"mesh":2,
		"rotation":[-0.02432520128786564,
		0.0,
		0.0,
		-0.999704122543335],
		"scale":[100.0,
		99.99999237060547,
		99.99999237060547]
	}],
	"meshes":[{
		"name":"Sphere",
		"primitives":[{
			"attributes":{
				"POSITION":1,
				"NORMAL":2,
				"TEXCOORD_0":3
			},
			"indices":0,
			"material":0
		}]
	},
	{
		"name":"riga",
		"primitives":[{
			"attributes":{
				"POSITION":5,
				"NORMAL":6,
				"TEXCOORD_0":7
			},
			"indices":4,
			"material":1
		}]
	},
	{
		"name":"Text",
		"primitives":[{
			"attributes":{
				"POSITION":9,
				"NORMAL":10,
				"TEXCOORD_0":11
			},
			"indices":8,
			"material":1
		}]
	}],
	"bufferViews":[{
		"buffer":0,
		"target":34963,
		"byteOffset":0,
		"byteLength":5760
	},
	{
		"buffer":0,
		"target":34962,
		"byteOffset":5760,
		"byteLength":17888,
		"byteStride":32
	},
	{
		"buffer":1,
		"target":34963,
		"byteOffset":0,
		"byteLength":744
	},
	{
		"buffer":1,
		"target":34962,
		"byteOffset":744,
		"byteLength":6144,
		"byteStride":32
	},
	{
		"buffer":2,
		"target":34963,
		"byteOffset":0,
		"byteLength":56898
	},
	{
		"buffer":2,
		"target":34962,
		"byteOffset":56900,
		"byteLength":308480,
		"byteStride":32
	}],
	"buffers":[{
		"uri":"data:application/octet-stream;base64,",
		"byteLength":23648
	},
	{
		"uri":"data:application/octet-stream;base64,",
		"byteLength":6888
	},
	{
		"uri":"data:application/octet-stream;base64,",
		"byteLength":365380
	}],
	"images":[{
		"uri":"data:image/jpeg;base64,"
	}],
	"samplers":[{
		"magFilter":9729,
		"minFilter":9729,
		"wrapS":10497,
		"wrapT":10497
	}],
	"textures":[{
		"sampler":0,
		"source":0
	}],
	"materials":[{
		"doubleSided":false,
		"alphaMode":"OPAQUE",
		"pbrMetallicRoughness":{
			"baseColorTexture":{
				"index":0
			},
			"baseColorFactor":[0.800000011920929,
			0.800000011920929,
			0.800000011920929,
			1.0],
			"metallicFactor":1.0,
			"roughnessFactor":1.0
		},
		"emissiveFactor":[0.0,
		0.0,
		0.0],
		"name":"Material.001"
	},
	{
		"doubleSided":false,
		"alphaMode":"OPAQUE",
		"pbrMetallicRoughness":{
			"baseColorFactor":[1.0,
			1.0,
			1.0,
			1.0],
			"metallicFactor":1.0,
			"roughnessFactor":1.0
		},
		"emissiveFactor":[0.0,
		0.0,
		0.0],
		"name":"text"
	}]
}