{
	"samplers":[{
		"magFilter":9729,
		"minFilter":9729,
		"wrapS":10497,
		"wrapT":10497
	}],
	"nodes":[{
		"name":"riga",
		"translation":[336.77374267578127,
		0.04013851284980774,
		1.4603614807128907],
		"rotation":[0.5,
		-0.5,
		0.5,
		-0.4999999701976776],
		"scale":[1.0,
		1.0,
		203.046630859375],
		"mesh":0
	},
	{
		"name":"Text",
		"translation":[268.33367919921877,
		14.807012557983399,
		0.0],
		"rotation":[-0.02432520128786564,
		0.0,
		0.0,
		-0.999704122543335],
		"scale":[100.0,
		99.99999237060547,
		99.99999237060547],
		"mesh":1
	},
	{
		"name":"Sphere",
		"mesh":2
	}],
	"scenes":[{
		"nodes":[0,
		1,
		2]
	}],
	"asset":{
		"version":"2.0",
		"generator":"Created using the official Cinema 4D glTF Exporter 1.000x284978"
	},
	"textures":[{
		"source":0,
		"sampler":0
	}],
	"meshes":[{
		"name":"riga",
		"primitives":[{
			"attributes":{
				"POSITION":1,
				"NORMAL":2,
				"TEXCOORD_0":3
			},
			"indices":0,
			"material":0
		}]
	},
	{
		"name":"Text",
		"primitives":[{
			"attributes":{
				"POSITION":5,
				"NORMAL":6,
				"TEXCOORD_0":7
			},
			"indices":4,
			"material":0
		}]
	},
	{
		"name":"Sphere",
		"primitives":[{
			"attributes":{
				"POSITION":9,
				"NORMAL":10,
				"TEXCOORD_0":11
			},
			"indices":8,
			"material":1
		}]
	}],
	"accessors":[{
		"bufferView":0,
		"count":372,
		"type":"SCALAR",
		"componentType":5123,
		"byteOffset":0,
		"min":[0],
		"max":[191]
	},
	{
		"bufferView":1,
		"count":192,
		"type":"VEC3",
		"componentType":5126,
		"byteOffset":0,
		"min":[-1.0000009536743165,
		-1.0,
		-1.0],
		"max":[1.0,
		1.0,
		1.1131747961044312]
	},
	{
		"bufferView":1,
		"count":192,
		"type":"VEC3",
		"componentType":5126,
		"byteOffset":12,
		"min":[-0.9951847791671753,
		-0.9951847195625305,
		-1.0],
		"max":[0.9951847195625305,
		0.9951847195625305,
		1.0]
	},
	{
		"bufferView":1,
		"count":192,
		"type":"VEC2",
		"componentType":5126,
		"byteOffset":24,
		"min":[0.0,
		0.0],
		"max":[1.0,
		0.9900000095367432]
	},
	{
		"bufferView":2,
		"count":28449,
		"type":"SCALAR",
		"componentType":5123,
		"byteOffset":0,
		"min":[0],
		"max":[9639]
	},
	{
		"bufferView":3,
		"count":9640,
		"type":"VEC3",
		"componentType":5126,
		"byteOffset":0,
		"min":[0.008200000040233136,
		-1.0460000038146973,
		0.0],
		"max":[2.9660003185272219,
		0.1364000141620636,
		0.0]
	},
	{
		"bufferView":3,
		"count":9640,
		"type":"VEC3",
		"componentType":5126,
		"byteOffset":12,
		"min":[0.0,
		0.0,
		0.0],
		"max":[0.0,
		0.0,
		1.0]
	},
	{
		"bufferView":3,
		"count":9640,
		"type":"VEC2",
		"componentType":5126,
		"byteOffset":24,
		"min":[0.0,
		1.0],
		"max":[1.0,
		1.0]
	},
	{
		"bufferView":4,
		"count":12672,
		"type":"SCALAR",
		"componentType":5123,
		"byteOffset":0,
		"min":[0],
		"max":[2275]
	},
	{
		"bufferView":5,
		"count":2276,
		"type":"VEC3",
		"componentType":5126,
		"byteOffset":0,
		"min":[-130.14984130859376,
		-130.29742431640626,
		-130.00242614746095],
		"max":[130.14984130859376,
		130.29742431640626,
		130.00242614746095]
	},
	{
		"bufferView":5,
		"count":2276,
		"type":"VEC3",
		"componentType":5126,
		"byteOffset":12,
		"min":[-0.998867392539978,
		-1.0,
		-0.9977376461029053],
		"max":[0.998867392539978,
		1.0,
		0.9977376461029053]
	},
	{
		"bufferView":5,
		"count":2276,
		"type":"VEC2",
		"componentType":5126,
		"byteOffset":24,
		"min":[-0.29019609093666079,
		0.009803920984268189],
		"max":[0.6901960372924805,
		0.9901959896087647]
	}],
	"bufferViews":[{
		"target":34963,
		"buffer":0,
		"byteOffset":0,
		"byteLength":744
	},
	{
		"target":34962,
		"buffer":0,
		"byteOffset":744,
		"byteLength":6144,
		"byteStride":32
	},
	{
		"target":34963,
		"buffer":1,
		"byteOffset":0,
		"byteLength":56898
	},
	{
		"target":34962,
		"buffer":1,
		"byteOffset":56900,
		"byteLength":308480,
		"byteStride":32
	},
	{
		"target":34963,
		"buffer":2,
		"byteOffset":0,
		"byteLength":25344
	},
	{
		"target":34962,
		"buffer":2,
		"byteOffset":25344,
		"byteLength":72832,
		"byteStride":32
	}],
	"buffers":[{
		"uri":"data:application/octet-stream;base64,",
		"byteLength":6888
	},
	{
		"uri":"data:application/octet-stream;base64,",
		"byteLength":365380
	},
	{
		"uri":"data:application/octet-stream;base64,",
		"byteLength":98176
	}],
	"images":[{
		"uri":"data:image/jpeg;base64,"
	}],
	"materials":[{
		"pbrMetallicRoughness":{
			"baseColorFactor":[1.0,
			1.0,
			1.0,
			1.0],
			"metallicFactor":1.0,
			"roughnessFactor":1.0
		},
		"emissiveFactor":[0.0,
		0.0,
		0.0],
		"alphaMode":"OPAQUE",
		"doubleSided":false,
		"name":"text"
	},
	{
		"pbrMetallicRoughness":{
			"baseColorTexture":{
				"index":0
			},
			"baseColorFactor":[0.800000011920929,
			0.800000011920929,
			0.800000011920929,
			1.0],
			"metallicFactor":1.0,
			"roughnessFactor":1.0
		},
		"emissiveFactor":[0.0,
		0.0,
		0.0],
		"alphaMode":"OPAQUE",
		"doubleSided":false,
		"name":"Material"
	}]
}