{
    "asset" : {
        "generator" : "Khronos glTF Blender I/O v3.3.36",
        "version" : "2.0"
    },
    "extensionsUsed" : [
        "KHR_materials_specular",
        "KHR_materials_ior"
    ],
    "scene" : 0,
    "scenes" : [
        {
            "name" : "Scene",
            "nodes" : [
                0,
                1,
                2
            ]
        }
    ],
    "nodes" : [
        {
            "mesh" : 0,
            "name" : "Cubo_1",
            "rotation" : [
                0.7071068286895752,
                0,
                0,
                0.7071067094802856
            ],
            "scale" : [
                0.008358844555914402,
                0.008358844555914402,
                0.008358844555914402
            ],
            "translation" : [
                -0.03346405178308487,
                0.3513725697994232,
                0.09362059831619263
            ]
        },
        {
            "mesh" : 1,
            "name" : "riga",
            "rotation" : [
                0,
                0,
                -0.7071068286895752,
                0.7071068286895752
            ],
            "scale" : [
                0.009999999776482582,
                2.030466318130493,
                0.009999999776482582
            ],
            "translation" : [
                2.571526050567627,
                0.0004013851284980774,
                0.014603614807128906
            ]
        },
        {
            "mesh" : 2,
            "name" : "Text",
            "rotation" : [
                0.7240980863571167,
                0,
                0,
                0.6896970272064209
            ],
            "translation" : [
                1.6132169961929321,
                0.122250497341156,
                0
            ]
        }
    ],
    "materials" : [
        {
            "doubleSided" : true,
            "extensions" : {
                "KHR_materials_specular" : {
                    "specularColorFactor" : [
                        0.474271529955476,
                        0.474271529955476,
                        0.474271529955476
                    ]
                },
                "KHR_materials_ior" : {
                    "ior" : 1.4500000476837158
                }
            },
            "name" : "Nuovo",
            "pbrMetallicRoughness" : {
                "baseColorTexture" : {
                    "index" : 0
                },
                "metallicFactor" : 0,
                "roughnessFactor" : 0.4000000059604645
            }
        },
        {
            "doubleSided" : true,
            "extensions" : {
                "KHR_materials_specular" : {
                    "specularColorFactor" : [
                        0,
                        0,
                        0
                    ]
                },
                "KHR_materials_ior" : {
                    "ior" : 1.4500000476837158
                }
            },
            "name" : "text",
            "pbrMetallicRoughness" : {
                "metallicFactor" : 0
            }
        }
    ],
    "meshes" : [
        {
            "name" : "Mesh",
            "primitives" : [
                {
                    "attributes" : {
                        "POSITION" : 0,
                        "NORMAL" : 1,
                        "TEXCOORD_0" : 2
                    },
                    "indices" : 3,
                    "material" : 0
                }
            ]
        },
        {
            "name" : "Cylinder",
            "primitives" : [
                {
                    "attributes" : {
                        "POSITION" : 4,
                        "NORMAL" : 5,
                        "TEXCOORD_0" : 6
                    },
                    "indices" : 7,
                    "material" : 1
                }
            ]
        },
        {
            "name" : "text",
            "primitives" : [
                {
                    "attributes" : {
                        "POSITION" : 8,
                        "NORMAL" : 9,
                        "TEXCOORD_0" : 10
                    },
                    "indices" : 11,
                    "material" : 1
                }
            ]
        }
    ],
    "textures" : [
        {
            "sampler" : 0,
            "source" : 0
        }
    ],
    "images" : [
        {
            "bufferView" : 4,
            "mimeType" : "image/png",
            "name" : "selce1"
        }
    ],
    "accessors" : [
        {
            "bufferView" : 0,
            "componentType" : 5126,
            "count" : 753,
            "max" : [
                85.45164489746094,
                13.906877517700195,
                175.04757690429688
            ],
            "min" : [
                -86.19501495361328,
                -32.302696228027344,
                -168.36863708496094
            ],
            "type" : "VEC3"
        },
        {
            "bufferView" : 1,
            "componentType" : 5126,
            "count" : 753,
            "type" : "VEC3"
        },
        {
            "bufferView" : 2,
            "componentType" : 5126,
            "count" : 753,
            "type" : "VEC2"
        },
        {
            "bufferView" : 3,
            "componentType" : 5123,
            "count" : 3228,
            "type" : "SCALAR"
        },
        {
            "bufferView" : 5,
            "componentType" : 5126,
            "count" : 192,
            "max" : [
                1,
                1,
                1
            ],
            "min" : [
                -1,
                -1,
                -1
            ],
            "type" : "VEC3"
        },
        {
            "bufferView" : 6,
            "componentType" : 5126,
            "count" : 192,
            "type" : "VEC3"
        },
        {
            "bufferView" : 7,
            "componentType" : 5126,
            "count" : 192,
            "type" : "VEC2"
        },
        {
            "bufferView" : 8,
            "componentType" : 5123,
            "count" : 372,
            "type" : "SCALAR"
        },
        {
            "bufferView" : 9,
            "componentType" : 5126,
            "count" : 12560,
            "max" : [
                2.9772002696990967,
                0,
                1.0017999410629272
            ],
            "min" : [
                0.0018000000854954123,
                0,
                -0.13820001482963562
            ],
            "type" : "VEC3"
        },
        {
            "bufferView" : 10,
            "componentType" : 5126,
            "count" : 12560,
            "type" : "VEC3"
        },
        {
            "bufferView" : 11,
            "componentType" : 5126,
            "count" : 12560,
            "type" : "VEC2"
        },
        {
            "bufferView" : 12,
            "componentType" : 5123,
            "count" : 28110,
            "type" : "SCALAR"
        }
    ],
    "bufferViews" : [
        {
            "buffer" : 0,
            "byteLength" : 9036,
            "byteOffset" : 0,
            "target" : 34962
        },
        {
            "buffer" : 0,
            "byteLength" : 9036,
            "byteOffset" : 9036,
            "target" : 34962
        },
        {
            "buffer" : 0,
            "byteLength" : 6024,
            "byteOffset" : 18072,
            "target" : 34962
        },
        {
            "buffer" : 0,
            "byteLength" : 6456,
            "byteOffset" : 24096,
            "target" : 34963
        },
        {
            "buffer" : 0,
            "byteLength" : 1464791,
            "byteOffset" : 30552
        },
        {
            "buffer" : 0,
            "byteLength" : 2304,
            "byteOffset" : 1495344,
            "target" : 34962
        },
        {
            "buffer" : 0,
            "byteLength" : 2304,
            "byteOffset" : 1497648,
            "target" : 34962
        },
        {
            "buffer" : 0,
            "byteLength" : 1536,
            "byteOffset" : 1499952,
            "target" : 34962
        },
        {
            "buffer" : 0,
            "byteLength" : 744,
            "byteOffset" : 1501488,
            "target" : 34963
        },
        {
            "buffer" : 0,
            "byteLength" : 150720,
            "byteOffset" : 1502232,
            "target" : 34962
        },
        {
            "buffer" : 0,
            "byteLength" : 150720,
            "byteOffset" : 1652952,
            "target" : 34962
        },
        {
            "buffer" : 0,
            "byteLength" : 100480,
            "byteOffset" : 1803672,
            "target" : 34962
        },
        {
            "buffer" : 0,
            "byteLength" : 56220,
            "byteOffset" : 1904152,
            "target" : 34963
        }
    ],
    "samplers" : [
        {
            "magFilter" : 9729,
            "minFilter" : 9987
        }
    ],
    "buffers" : [
        {
            "byteLength" : 1960372,
            "uri" : "data:application/octet-stream;base64,"
        }
    ]
}
